# xmcd CD database file
#
# Track frame offsets:
#	187
#	19142
#	35825
#	54897
#	70550
#	87417
#	109162
#	124347
#	141817
#	152232
#
# Disc length: 2189 seconds
#
# Revision: 0
# Processed by: cddbd v1.4PL0 Copyright (c) Steve Scherf et al.
# Submitted via: CDex 1.50
#
DISCID=86088b0a
DTITLE=Ahmad Jamal - Volume4
DYEAR=1958
DGENRE=Jazz
TTITLE0=Taboo
TTITLE1=Should I
TTITLE2=Stompin' at Savoy
TTITLE3=The Girl Next Door
TTITLE4=I Wish I Knew
TTITLE5=Cheek to cheek
TTITLE6=Autumn in NewYork
TTITLE7=Secret Love
TTITLE8=Squatty Roo
TTITLE9=That's All
EXTD=YEAR: 1958
EXTT0=
EXTT1=
EXTT2=
EXTT3=
EXTT4=
EXTT5=
EXTT6=
EXTT7=
EXTT8=
EXTT9=
PLAYORDER=
